<?xml version="1.0" standalone="no"?><!DOCTYPE svg PUBLIC "-//W3C//DTD SVG 1.1//EN" "http://www.w3.org/Graphics/SVG/1.1/DTD/svg11.dtd"><svg t="1494409390905" class="icon" style="" viewBox="0 0 1024 1024" version="1.1" xmlns="http://www.w3.org/2000/svg" p-id="24595" xmlns:xlink="http://www.w3.org/1999/xlink" width="29" height="29"><defs><style type="text/css"></style></defs><path d="M959.430914 359.051539L796.621874 94.486978H226.789725L63.980685 359.051539l447.724091 569.83215 447.726138-569.83215z m-264.564561-20.35049l81.404008-162.810063 101.755521 162.810063H694.866353z m-61.053518 0H389.599787l122.106012-183.160553 122.107036 183.160553z m-345.969593-183.161577h162.80904L360.145965 303.363216l-72.302723-147.823744z m447.724091 0l-72.301699 147.823744-90.506317-147.823744h162.808016z m-101.754498 244.214071l-122.107036 427.373601-122.106012-427.373601h244.213048z m-305.267589-61.052494H145.385716l101.755522-162.810063 81.404008 162.810063z m0 61.052494l101.755522 325.618079-264.564561-325.618079h162.809039z m366.321107 0h162.809039L593.110831 725.371622l101.755522-325.618079z" p-id="24596" fill="#f19736"></path></svg>