<?xml version="1.0" standalone="no"?><!DOCTYPE svg PUBLIC "-//W3C//DTD SVG 1.1//EN" "http://www.w3.org/Graphics/SVG/1.1/DTD/svg11.dtd"><svg t="1494399772143" class="icon" style="" viewBox="0 0 1024 1024" version="1.1" xmlns="http://www.w3.org/2000/svg" p-id="6624" xmlns:xlink="http://www.w3.org/1999/xlink" width="32" height="32"><defs><style type="text/css"></style></defs><path d="M970.24 904.192h-68.608v-398.848c0-28.672-23.04-51.712-51.712-51.712h-669.184c-28.672 0-51.712 23.04-51.712 51.712v398.848h-81.92c-15.36 0-28.16 12.288-28.16 28.16 0 15.36 12.8 28.16 28.16 28.16h923.136c15.36 0 28.16-12.8 28.16-28.16 0-15.872-12.288-28.16-28.16-28.16z m-126.464 0h-656.896v-263.168c3.072 6.144 6.656 12.288 9.728 19.968 16.384 33.792 36.352 75.264 81.92 75.264s66.048-41.984 81.92-75.264c13.312-27.648 23.552-46.592 36.352-46.592 12.288 0 23.04 19.456 35.84 46.592 16.384 33.792 36.352 75.264 81.92 75.264s66.048-41.984 82.432-75.264c13.312-27.136 23.552-46.592 36.352-46.592 12.288 0 23.04 19.456 36.352 46.592 16.384 33.792 36.352 75.264 82.432 75.264 45.568 0 66.048-41.984 82.432-75.264 3.072-6.656 6.656-13.312 9.216-18.944v262.144z m0-335.36c-27.648 12.288-43.008 43.52-55.808 69.632-13.312 27.648-23.552 46.592-36.352 46.592s-23.04-19.456-36.352-46.592c-16.384-33.792-36.352-75.264-82.432-75.264-45.568 0-66.048 41.984-81.92 75.264-13.312 27.648-23.552 46.592-36.352 46.592-12.288 0-22.528-19.456-35.84-46.592-16.384-33.792-36.352-75.264-81.92-75.264s-66.048 41.984-81.92 75.264c-13.312 27.648-23.552 46.592-35.84 46.592-12.288 0-23.04-19.456-35.84-46.592-12.8-26.112-28.16-57.856-55.808-70.144v-51.2h656.896l-0.512 51.712z m-517.632-392.704c13.824 0 24.576-11.264 24.576-24.576v-24.064c0-13.824-11.264-24.576-24.576-24.576-13.824 0-25.088 11.264-25.088 24.576v24.064c0.512 13.824 11.264 24.576 25.088 24.576z m0 40.96c-12.288 0-22.016 9.728-22.016 22.016v183.296c0 12.288 9.728 22.016 22.016 22.016 11.776 0 21.504-9.728 21.504-22.016v-183.296c0.512-12.288-9.728-22.016-21.504-22.016z m183.808-40.96c13.824 0 24.576-11.264 24.576-24.576v-24.064c0-13.824-11.264-24.576-24.576-24.576-13.824 0-24.576 11.264-24.576 24.576v24.064c0 13.824 11.264 24.576 24.576 24.576z m0 40.96c-12.288 0-22.016 9.728-22.016 22.016v183.296c0 12.288 9.728 22.016 22.016 22.016 11.776 0 21.504-9.728 21.504-22.016v-183.296c0.512-12.288-9.216-22.016-21.504-22.016z m184.32-40.96c13.824 0 24.576-11.264 24.576-24.576v-24.064c0-13.824-11.264-24.576-24.576-24.576-13.824 0-25.088 11.264-25.088 24.576v24.064c0 13.824 11.264 24.576 25.088 24.576z m0 40.96c-12.288 0-22.016 9.728-22.016 22.016v183.296c0 12.288 9.728 22.016 22.016 22.016 11.776 0 21.504-9.728 21.504-22.016v-183.296c0-12.288-9.728-22.016-21.504-22.016z" p-id="6625" fill="#1ABC9C"></path></svg>