<?xml version="1.0" standalone="no"?><!DOCTYPE svg PUBLIC "-//W3C//DTD SVG 1.1//EN" "http://www.w3.org/Graphics/SVG/1.1/DTD/svg11.dtd"><svg t="1494464522656" class="icon" style="" viewBox="0 0 1024 1024" version="1.1" xmlns="http://www.w3.org/2000/svg" p-id="2678" xmlns:xlink="http://www.w3.org/1999/xlink" width="29" height="29"><defs><style type="text/css"></style></defs><path d="M1006.662434 387.566843c0-41.17672-33.230335-74.407055-74.407055-74.407055-40.81552 0-74.407055 33.591534-74.407055 74.407055 0 6.862787 1.083598 13.364374 2.889594 19.504762-10.11358 3.250794-18.421164 7.946384-21.671958 10.11358l-135.088536 79.825044-117.75097-171.208466c-5.05679-8.668783-14.086772-19.865961-26.728748-29.979541 14.447972-14.809171 23.116755-35.036332 23.116755-57.069489 0-45.149912-36.842328-81.99224-81.99224-81.99224S418.991182 193.964021 418.991182 239.113933c0 22.033157 8.668783 42.260317 23.116755 57.069489-12.280776 9.752381-21.671958 20.949559-26.728748 29.979541l-117.75097 171.208466-135.088536-79.825044c-0.722399-0.361199-1.444797-1.083598-2.528395-1.444797 3.611993-8.668783 5.779189-18.421164 5.779189-28.173545 0-41.17672-33.230335-74.407055-74.407055-74.407055S17.337566 346.751323 17.337566 387.566843c0 33.230335 22.033157 61.042681 52.012698 70.795062-0.361199 5.05679-0.722399 10.11358-0.722399 15.53157l0 167.957672c0 15.17037 12.280776 27.812346 27.812346 27.812346s27.812346-12.280776 27.812346-27.812346l0-168.318871c0-6.501587 0.361199-10.835979 1.083598-13.364374 2.528395 0.722399 5.417989 2.167196 7.585185 3.611993 0.361199 0.361199 1.083598 0.722399 1.444797 0.722399l157.844092 93.189418c12.641975 7.223986 28.534744 3.973192 36.842328-8.307584l132.92134-193.602822c0.361199-0.722399 1.083598-1.444797 1.444797-2.167196 0-0.361199 14.086772-23.116755 37.203527-24.200353 0 0 0.361199 0 0.361199 0 0.361199 0 0.722399 0 1.083598 0 23.477954 1.083598 37.203527 24.200353 37.203527 24.200353 0.361199 0.722399 0.722399 1.444797 1.444797 2.167196l132.92134 193.602822c8.307584 11.919577 24.200353 15.53157 36.842328 8.307584l157.844092-93.189418c0.361199-0.361199 0.722399-0.722399 1.083598-0.722399 2.167196-1.444797 5.05679-2.889594 7.585185-3.611993 0.722399 2.528395 1.083598 6.862787 1.083598 13.725573l0 229.722751L96.440212 703.616226c-15.17037 0-27.812346 12.280776-27.812346 27.812346L68.627866 841.594356c0 15.17037 12.280776 27.812346 27.812346 27.812346l809.08642 0c15.17037 0 27.812346-12.280776 27.812346-27.812346s-12.280776-27.812346-27.812346-27.812346L124.252557 813.782011l0-54.902293 781.274074 0c15.17037 0 27.812346-12.280776 27.812346-27.812346l0-257.173898c0-4.334392 0-8.307584-0.361199-12.280776C973.432099 461.973898 1006.662434 428.743563 1006.662434 387.566843zM91.744621 368.42328c10.47478 0 19.143563 8.668783 19.143563 19.143563s-8.668783 19.143563-19.143563 19.143563-19.143563-8.668783-19.143563-19.143563S81.269841 368.42328 91.744621 368.42328zM500.983422 212.385185c14.809171 0 26.728748 11.919577 26.728748 26.728748s-11.919577 26.728748-26.728748 26.728748-26.728748-11.919577-26.728748-26.728748S486.53545 212.385185 500.983422 212.385185zM932.255379 407.071605c-10.47478 0-19.143563-8.668783-19.143563-19.143563s8.668783-19.143563 19.143563-19.143563c10.47478 0 19.143563 8.668783 19.143563 19.143563S942.730159 407.071605 932.255379 407.071605z" p-id="2679" fill="#1ABC9C"></path></svg>