<?xml version="1.0" standalone="no"?><!DOCTYPE svg PUBLIC "-//W3C//DTD SVG 1.1//EN" "http://www.w3.org/Graphics/SVG/1.1/DTD/svg11.dtd"><svg t="1494498112959" class="icon" style="" viewBox="0 0 1024 1024" version="1.1" xmlns="http://www.w3.org/2000/svg" p-id="10105" xmlns:xlink="http://www.w3.org/1999/xlink" width="29" height="29"><defs><style type="text/css"></style></defs><path d="M511.39897 760.169909c-57.899263 0-113.639269-20.412774-157.603531-56.853025l-10.707245 12.866503a267.191409 267.191409 0 0 0 168.333036 60.014c127.57427 0 236.917284-91.134019 261.581792-215.502793l-17.162758-3.205496c-22.50525 117.980044-125.459533 202.680811-244.441294 202.680811z m168.333036-454.579335a267.302711 267.302711 0 0 0-168.333036-60.03626c-127.57427 0-236.961805 91.111758-261.604052 215.525054l17.162757 3.205495c21.414491-116.867025 124.346514-201.567792 244.441295-201.567792 57.877003 0 113.661529 20.368253 157.58127 56.808505l10.751766-13.935002z m150.057259 390.22456l-17.162757-14.981239-6.410991 23.573748-21.459012 12.888764 20.390514 12.844242 4.273994 23.596009 19.277494-15.02576 23.618269 2.136997c-73.971261 109.387535-198.340036 182.290298-339.871568 182.290298-226.210039 0-409.546575-183.358797-409.546575-409.568836S286.235169 104.045042 512.445208 104.045042c226.210039 0 409.568835 183.314276 409.568835 409.524315 0 83.632269-25.733006 161.899785-68.628769 227.256277l-7.52401-21.414491 10.707245-22.50525-26.779244-1.090759zM511.39897 82.586031c-236.961805 0-428.846329 191.906785-428.84633 428.846329S274.459425 940.30095 511.39897 940.30095c236.917284 0 428.824069-191.929045 428.824069-428.86859-1.068499-236.939545-192.975283-428.846329-428.824069-428.846329z m0 905.930914c-262.672551 0-477.106846-214.434295-477.106846-477.106845 0-262.65029 214.434295-477.084585 477.106846-477.084585 262.65029 0 477.106846 213.343536 477.106845 477.084585 0 262.672551-214.456555 477.106846-477.106845 477.106845z m0-988.494685C229.426665 0.02226 0.01113 229.460055 0.01113 511.43236 0.01113 793.382405 229.426665 1022.8202 511.39897 1022.8202c281.950045 0 511.4101-229.460055 511.410099-511.4101S793.349014 0.02226 511.39897 0.02226z m-149.033282 811.591401l-17.162758-17.162758-7.479489 22.527511-21.459012 10.707245 19.299754 15.02576 4.296255 23.573749 19.299754-13.912741 23.573749 4.251733-7.47949-23.573748 10.707245-21.459012h-23.596008v0.022261z m181.199539 26.801504l-23.596009 6.433251-21.436751-11.775744v23.573749l-17.162758 16.094259 23.61827 8.592508 10.707245 21.436752 13.935001-18.231256 23.573749-3.205496-12.844243-19.299754 3.205496-23.618269z m150.07952-41.805004l-18.208996 15.0035-24.664507-2.159258 9.683268 21.436752-9.683268 21.481272 24.664507-2.159258 18.208996 15.0035 5.364753-22.50525 21.436751-11.820264-21.436751-11.775744-5.364753-22.50525zM230.517424 333.460577l17.140496 17.162757 8.592509-22.50525 22.50525-10.707245-19.299754-13.935002-3.227756-23.573748-20.368253 13.935001-23.573748-3.227755 6.433251 22.52751-11.798004 21.436751 23.596009-1.113019z m254.080041-142.60003l23.573749-6.433252 22.52751 11.798004V172.651551l17.162757-16.094259-23.573748-8.570248-11.798005-21.414491-13.935001 18.208995-24.642247 3.205496 15.0035 19.322014-4.318515 23.551489z m192.975283 27.892263l17.162758 17.162757 7.52401-22.50525 21.459012-10.729506-20.390513-15.0035-4.273994-23.596008-19.277494 13.935001-23.61827-4.273994 7.524011 23.573748-10.707246 21.459012h24.597726v-0.02226z m-344.123301 25.710745l19.299754-15.02576 24.642247 2.159257-9.661007-21.436751 9.661007-21.436752-24.642247 2.159258-19.299754-15.0035-5.387014 21.414491-21.414491 11.798004 21.414491 11.775744 5.387014 23.596009z m42.851242 325.936567l-130.779766 47.169757 21.436752 58.945501c3.205496 7.50175 8.570248 10.729506 16.071998 7.50175l106.137519-38.577248c3.227756-1.068499 6.433251-4.296254 8.592509-7.50175 2.136997-4.273994 0-18.231256-7.50175-40.736506l22.50525-1.090759c7.50175 27.892263 9.638747 45.0105 6.455512 51.466012-3.227756 6.455512-9.683268 11.775744-17.162758 15.02576l-117.913262 41.805004c-17.162757 6.433251-30.02926 0-36.484773-18.231256l-39.645746-110.411512 20.368253-7.50175 10.729505 28.960761 110.411513-39.668007-18.208995-49.306754-140.440773 50.375253-6.455512-19.299755 160.831286-57.877002 31.053238 88.952501m58.967762-37.53101c-3.227756 9.661007-6.433251 18.208995-10.707246 27.870002l-13.935001-19.277494c11.775744-32.143997 17.140497-66.469512 15.0035-102.932023l22.50525 2.136997c1.068499 17.162757 0 35.371753-3.227756 53.603009l50.375252 143.668529-20.368252 7.50175-39.645747-112.57077m18.231256-79.358275l53.603008-19.277494-7.50175-20.390513 20.390513-7.47949 7.50175 20.368253 56.808505-20.368253 6.433251 19.299754-56.830765 20.368253 6.433252 17.162757 49.329015-17.162757 22.505249 63.264016-50.375252 18.231256c4.251734 18.231256 6.410991 33.212495 5.342492 45.03276 23.596009 3.205496 49.329015 1.068499 76.130519-7.52401l2.136997 21.436751c-30.007 8.592509-57.921523 10.729506-83.610008 6.433252-7.52401 15.02576-22.549771 27.870003-46.123519 40.758766l-15.0035-15.025761c19.299754-8.570248 32.166257-19.277494 39.668007-30.006999a164.148084 164.148084 0 0 1-41.805004-19.322015l11.798004-16.071999c11.775744 7.47949 23.596009 12.844243 36.462512 16.071999a200.788679 200.788679 0 0 0-3.227756-33.212496l-48.260516 13.912741-22.50525-63.241755 47.192017-17.162757-6.455511-17.162758-53.580749 19.299755-6.455511-18.231256m82.541509 62.195517l-9.638746-26.801504-28.938502 10.751766 9.638747 26.801504 28.938501-10.751766m50.397514-18.231256l-9.661008-26.801504-30.007 10.751766 9.661008 26.801505 30.007-10.751767m93.293276-2.136997c7.50175 27.870003 7.50175 52.53451 0 75.062021l-20.412774-8.570249c6.455512-22.549771 4.318515-48.260516-5.320232-76.130519l-37.53101-104.000521 162.946023-58.967762 57.899263 159.762788c5.364753 16.094259 0 26.801504-16.094259 33.212495l-24.619987 8.592509-12.888763-18.231256c9.638747-2.136997 17.162757-5.342493 23.596009-7.479489 6.455512-2.181518 8.592509-7.50175 6.455512-16.094259l-11.820265-31.097759-52.53451 19.299754 21.481272 60.036261-20.368253 7.501749-21.459012-60.013999-49.329014 17.118236m12.844242-120.07252l-49.306754 17.162758 11.775744 32.166257 49.306754-17.162758-11.775744-32.166257m-31.075498 67.582531l11.775744 32.143997 49.306754-17.162757-11.775744-32.143997-49.306754 17.162757m115.798526-62.217778l-11.820265-32.166257-52.53451 19.299754 11.820265 32.166257 52.53451-19.299754m18.208996 51.466012l-11.798005-32.166258-52.53451 18.208996 11.820265 32.166257 52.51225-18.208995" fill="#999999" p-id="10106"></path></svg>