<?xml version="1.0" standalone="no"?><!DOCTYPE svg PUBLIC "-//W3C//DTD SVG 1.1//EN" "http://www.w3.org/Graphics/SVG/1.1/DTD/svg11.dtd"><svg t="1494498207345" class="icon" style="" viewBox="0 0 1024 1024" version="1.1" xmlns="http://www.w3.org/2000/svg" p-id="2531" xmlns:xlink="http://www.w3.org/1999/xlink" width="29" height="29"><defs><style type="text/css"></style></defs><path d="M218.7 92.4C-13 254.4-69.6 573.6 92.4 805.3c162 231.7 481.2 288.3 712.9 126.3 231.7-162 288.3-481.2 126.3-712.9C769.6-13 450.4-69.6 218.7 92.4zM781.3 897.3C568.5 1046 275.5 994.1 126.7 781.3c-148.7-212.8-96.8-505.9 116-654.6C455.5-22 748.5 29.9 897.3 242.7 1046 455.5 994.1 748.5 781.3 897.3z" p-id="2532" fill="#999999"></path><path d="M260.1 151.6C61.1 290.8 12.5 564.9 151.6 763.9c139.1 199 413.2 247.6 612.3 108.5S1011.5 459.1 872.4 260.1C733.2 61.1 459.1 12.5 260.1 151.6zM752 855.3C562.4 987.8 301.3 941.5 168.7 752 36.2 562.4 82.5 301.3 272 168.7 461.6 36.2 722.7 82.5 855.3 272 987.8 461.6 941.5 722.7 752 855.3z" p-id="2533" fill="#999999"></path><path d="M290.9 506c1.9-67.7 34.7-133.6 94.4-175.3s132.9-49.9 197.1-28.4l21.5-15c-73.8-30-160.8-23.3-230.9 25.7S266.5 441.4 269.4 521L290.9 506z" p-id="2534" fill="#999999"></path><path d="M733.1 518c-1.9 67.7-34.7 133.6-94.4 175.3-59.7 41.8-132.9 49.9-197.1 28.4l-21.5 15c73.8 30 160.8 23.3 230.9-25.7S757.5 582.6 754.6 503L733.1 518z" p-id="2535" fill="#999999"></path><path d="M287.1 190.2 320.7 215.6 355.2 191.5 341.4 231.3 375 256.6 333 255.9 319.2 295.7 306.9 255.4 264.8 254.6 299.3 230.5Z" p-id="2536" fill="#999999"></path><path d="M172.2 315.4 213.3 324.2 234.4 287.8 238.8 329.7 280 338.4 241.5 355.5 245.8 397.4 217.7 366.1 179.2 383.2 200.3 346.7Z" p-id="2537" fill="#999999"></path><path d="M444.1 125.3 463.9 162.5 505.3 155.2 476.1 185.5 495.8 222.7 458 204.2 428.7 234.5 434.6 192.8 396.8 174.3 438.2 167Z" p-id="2538" fill="#999999"></path><path d="M613.9 132.9 616.1 174.9 656.7 185.8 617.4 200.9 619.6 242.9 593.1 210.2 553.8 225.3 576.8 190 550.3 157.2 590.9 168.2Z" p-id="2539" fill="#999999"></path><path d="M120.9 477.5 162 468 165.7 426.1 187.3 462.2 228.3 452.8 200.7 484.5 222.4 520.6 183.6 504.1 156 535.9 159.7 494Z" p-id="2540" fill="#999999"></path><path d="M736.9 833.8 703.3 808.4 668.8 832.5 682.6 792.7 649 767.4 691 768.1 704.8 728.3 717.1 768.6 759.2 769.4 724.7 793.5Z" p-id="2541" fill="#999999"></path><path d="M851.8 708.6 810.7 699.8 789.6 736.2 785.2 694.3 744 685.6 782.5 668.5 778.2 626.6 806.3 657.9 844.8 640.8 823.7 677.3Z" p-id="2542" fill="#999999"></path><path d="M579.9 898.7 560.1 861.5 518.7 868.8 547.9 838.5 528.2 801.3 566 819.8 595.3 789.5 589.4 831.2 627.2 849.7 585.8 857Z" p-id="2543" fill="#999999"></path><path d="M410.1 891.1 407.9 849.1 367.3 838.2 406.6 823.1 404.4 781.1 430.9 813.8 470.2 798.7 447.2 834 473.7 866.8 433.1 855.8Z" p-id="2544" fill="#999999"></path><path d="M903.1 546.5 862 556 858.3 597.9 836.7 561.8 795.7 571.2 823.3 539.5 801.6 503.4 840.4 519.9 868 488.1 864.3 530Z" p-id="2545" fill="#999999"></path><path d="M393.6 594.8l-110.7 77.5 34.7 49.5c4.7 6.7 10.3 7.7 16.9 3.1l90-63c3.1-2.2 5.2-5.2 6.2-9.1 0.9-4.6-4.8-16.6-17-36.2l20.4-6.3c13.6 24 20 39.4 19.3 46.3-1.5 7-5.8 13.1-12.7 18.5l-99.5 69.7c-14.8 10.4-27.7 7.8-38.6-7.7l-65.4-93.5 17.2-12.1L271.5 656l93.4-65.4-29.9-42.7-118.9 83.3-11.4-16.3 136.1-95.3L393.6 594.8z" p-id="2546" fill="#999999"></path><path d="M608 562c-6.2 4.4-17.4 12-33.6 23-12.2 8.3-22.8 14.3-31.9 17.8-8.9 3-18.4 3.5-28.5 1.3-4.6-1.2-8-1-10.3 0.5-3.8 2.7-4.6 15.6-2.3 38.7l-20.7-2.9c-1.3-21.2 0.4-36.3 5-45.2l-35.4-50.6-24.4 17.1L414.5 545.7l40.7-28.5 47.6 68c1.4-0.1 3 0.2 4.8 0.7 7.6 1.6 14.6 2 21 1 7.4-1.4 16.7-5.8 27.9-13.2 14.3-9.6 27-18.4 38.1-26.1l24.6-17.5c8.2-6.3 14.5-11.2 18.8-14.8l7.9 20.1L608 562zM387.8 476.7c18.6 0.9 35.4 3 50.3 6.5l-3.7 21c-14.4-4.2-31.2-7-50.4-8.3L387.8 476.7zM561.2 559l-15.3-13.9c8.3-4.7 15.9-9.5 22.8-14.4 4.5-3.2 5.5-6.7 2.8-10.5l-50.7-72.5-64 44.8-11.6-16.5 64-44.8-19.3-27.6 17.2-12.1 19.3 27.6 24-16.8 11.6 16.5-24 16.8 53.6 76.6c8 11.4 5.9 21.3-6.2 29.7L561.2 559zM488.3 490c19.4 5.8 35.3 11.6 47.7 17.4l-7.3 20.1c-12.8-6.6-28.7-12.9-47.9-19.1L488.3 490z" p-id="2547" fill="#999999"></path><path d="M678.5 467.2c2.5 17 2.6 33.4 0.5 49.1l-20.2-0.3c2.7-14.5 3.2-29.8 1.5-46L678.5 467.2zM563.5 352.3l16.5-11.6 12.9 18.5 31-21.7-12.7-18.1 16.5-11.6 12.7 18.1 9.3-6.5 11.1 15.8-9.3 6.5 50.4 71.9 10.2-7.2 11.1 15.8-85.9 60.2-11.1-15.8 11.7-8.2L587.5 386.6l-9.7 6.8-11.1-15.8 9.7-6.8L563.5 352.3zM635 353.3l-31 21.7 9.9 14.2 31-21.7L635 353.3zM634.1 418.1l31-21.7-9.8-14-31 21.7L634.1 418.1zM654.4 446.9l31-21.7-9.8-14-31 21.7L654.4 446.9zM698.8 442.5c13.7 4.1 25.4 8.3 35 12.6-1-23-9.5-46.1-25.5-69.3l-60-85.7 63.5-44.5 98.5 140.6c8.2 11.7 6.4 21.7-5.3 29.9l-18.7 13.1-16.3-13.4c8.9-5.6 15.1-9.5 18.4-11.8 3.9-2.8 4.1-6.7 0.5-11.9l-22.6-32.3-30.5 21.4c13.9 25.2 20.5 49.8 19.7 73.9l-20.1-2.8-5.2 14.3c-10.1-5.6-23-11.1-38.6-16.6L698.8 442.5zM725.3 311.2l-19.2-27.4-29.4 20.6 19.2 27.4L725.3 311.2zM706.7 347.2l19.3 27.6 29.4-20.6-19.3-27.6L706.7 347.2z" p-id="2548" fill="#999999"></path></svg>