<?xml version="1.0" standalone="no"?><!DOCTYPE svg PUBLIC "-//W3C//DTD SVG 1.1//EN" "http://www.w3.org/Graphics/SVG/1.1/DTD/svg11.dtd"><svg t="1494402633030" class="icon" style="" viewBox="0 0 1024 1024" version="1.1" xmlns="http://www.w3.org/2000/svg" p-id="16907" xmlns:xlink="http://www.w3.org/1999/xlink" width="32" height="32"><defs><style type="text/css"></style></defs><path d="M963.84 348.16L755.2 107.52c-8.96-10.24-21.76-16.64-34.56-16.64H304.64c-12.8 0-26.88 5.12-34.56 15.36L61.44 344.32c-14.08 16.64-15.36 42.24-1.28 58.88l416 510.72c8.96 10.24 21.76 16.64 35.84 16.64 14.08 0 26.88-6.4 35.84-16.64l416-509.44c14.08-15.36 14.08-39.68 0-56.32z m-620.8 2.56L512 157.44l166.4 193.28H343.04zM672 396.8L512 821.76 352 396.8h320z m-369.92 0l162.56 433.92L112.64 396.8h189.44z m418.56 0h192L558.08 830.72 720.64 396.8z m183.04-46.08H739.84c-1.28-1.28-1.28-2.56-2.56-2.56L555.52 138.24h163.84l184.32 212.48zM304.64 138.24h163.84L286.72 345.6c-1.28 1.28-2.56 2.56-2.56 5.12h-166.4l186.88-212.48z" fill="#999999" p-id="16908"></path></svg>