<?xml version="1.0" standalone="no"?><!DOCTYPE svg PUBLIC "-//W3C//DTD SVG 1.1//EN" "http://www.w3.org/Graphics/SVG/1.1/DTD/svg11.dtd"><svg t="1494399556192" class="icon" style="" viewBox="0 0 1024 1024" version="1.1" xmlns="http://www.w3.org/2000/svg" p-id="2121" xmlns:xlink="http://www.w3.org/1999/xlink" width="32" height="32"><defs><style type="text/css"></style></defs><path d="M966.046588 140.349515l-98.985432-99.117438C851.029018 25.112957 828.023048 15.886829 803.884278 15.886829c-24.108071 0-47.133483 9.226129-63.164598 25.345248-0.063445 0.038886-0.130983 0.112564-0.199545 0.162706l-80.676437 95.084589L229.203704 549.46938c-0.491187 0.453325-0.827855 1.094938-0.859577 1.772366l-28.430516 247.550049c-0.106424 0.939395 0.287549 1.879813 0.995677 2.488681l13.681604 11.975752c0.509606 0.460488 1.201361 0.704035 1.89107 0.704035 0.137123 0 0.274246 0 0.404206-0.031722l240.71948-32.815383c0.676405-0.100284 1.249457-0.39295 1.703805-0.877997l411.752832-431.927313 94.78783-77.549214c0.067538-0.066515 0.1361-0.12996 0.217964-0.198521 16.572444-16.648169 26.115797-40.374546 26.115797-65.103764C992.182852 180.724061 982.639498 157.009963 966.046588 140.349515M921.185868 222.151589l-55.307653 55.44273L730.231815 141.705396l55.287187-55.474452c4.90266-4.863774 11.385305-7.559163 18.334577-7.559163 6.992251 0 13.512758 2.694365 18.358113 7.559163l98.91687 99.055017C931.252131 195.425901 931.28897 211.986065 921.185868 222.151589M274.575054 738.926336l6.469342-106.098433 97.773837 97.879238L274.575054 738.926336 274.575054 738.926336zM310.18611 572.158125 691.161984 192.446034l124.127042 124.363426L436.725084 698.810686 310.18611 572.158125 310.18611 572.158125zM310.18611 572.158125" p-id="2122" fill="#1ABC9C"></path><path d="M876.995413 429.108105c-17.35118 0-30.963199 14.120602-30.963199 32.16456l0 386.332882c0 37.669948-29.29521 68.352761-65.309448 68.352761L174.002474 915.958308c-18.126846 0-38.327934-7.713682-54.144154-20.549012-16.585747-13.468756-26.115797-30.91408-26.115797-47.803749L93.742523 239.10982c0-35.851533 42.75271-76.730569 80.259952-76.730569l326.69562 0c18.011212 0 32.114418-13.650905 32.114418-31.051203 0-17.400299-14.103206-31.012318-32.114418-31.012318L174.002474 100.31573c-79.737042 0-142.185326 60.987003-142.185326 138.79409l0 608.494705c0 37.371142 14.85022 71.046103 41.826618 94.829785 26.01756 22.944572 61.658292 35.573193 100.359732 35.573193l606.721315 0c38.277792 0 70.474075-12.354376 93.044116-35.741016 22.403243-23.143093 34.223452-55.872518 34.223452-94.661963L907.992381 461.271642C907.991358 443.228707 894.409015 429.108105 876.995413 429.108105" p-id="2123" fill="#1ABC9C"></path></svg>