<?xml version="1.0" standalone="no"?><!DOCTYPE svg PUBLIC "-//W3C//DTD SVG 1.1//EN" "http://www.w3.org/Graphics/SVG/1.1/DTD/svg11.dtd"><svg t="1494399494913" class="icon" style="" viewBox="0 0 1024 1024" version="1.1" xmlns="http://www.w3.org/2000/svg" p-id="3120" xmlns:xlink="http://www.w3.org/1999/xlink" width="32" height="32"><defs><style type="text/css"></style></defs><path d="M901.785 130.0975l-71.51875 0L830.26625 38.15c0-21.03625-17.11375-38.15-38.14875-38.15l-2.54875 0c-21.03125 0-38.14 17.10875-38.14 38.15l0 91.9475-475.2875 0L276.14125 38.15C276.14125 17.11375 259.03125 0 237.99625 0l-2.54875 0c-21.035 0-38.15 17.10875-38.15 38.15l0 91.9475-75.0875 0C55.49625 130.0975 1.21875 184.375 1.21875 251.08875l0 651.90875c0 66.71875 54.2775 121.00125 120.99125 121.00125l779.575 0c66.71875 0 120.99625-54.2825 120.99625-121.00125L1022.78125 251.08875C1022.78125 184.375 968.49875 130.0975 901.785 130.0975L901.785 130.0975zM946.4875 944.985 78.87 944.985 78.87 404.6825l867.6175 0L946.4875 944.985 946.4875 944.985zM946.4875 324.32125 78.87 324.32125l0-117.93 867.6175 0L946.4875 324.32125 946.4875 324.32125zM946.4875 324.32125" p-id="3121" fill="#1ABC9C"></path><path d="M408.7525 873.6675c6.7925 6.79125 15.69375 10.19 24.595 10.19 6.03 0 12.04125-1.59625 17.4175-4.7125 3.085-1.60625 5.98625-3.69125 8.57375-6.28375l352.05625-352.05125c13.58375-13.58875 13.58375-35.615 0-49.19875-13.585-13.58375-35.61125-13.58375-49.2 0l-328.55 328.555L267.3125 633.8275c-13.58875-13.58375-35.615-13.58375-49.19875 0-13.585 13.59-13.585 35.61625 0 49.2L408.7525 873.6675 408.7525 873.6675zM408.7525 873.6675" p-id="3122" fill="#1ABC9C"></path></svg>