<?xml version="1.0" standalone="no"?><!DOCTYPE svg PUBLIC "-//W3C//DTD SVG 1.1//EN" "http://www.w3.org/Graphics/SVG/1.1/DTD/svg11.dtd"><svg t="1494399695310" class="icon" style="" viewBox="0 0 1024 1024" version="1.1" xmlns="http://www.w3.org/2000/svg" p-id="5021" xmlns:xlink="http://www.w3.org/1999/xlink" width="32" height="32"><defs><style type="text/css"></style></defs><path d="M582.4 192c-19.2 64 12.8 115.2 32 140.8l32 32c25.6 25.6 44.8 32 70.4 76.8 44.8 64 76.8 128 38.4 243.2C710.4 800 601.6 838.4 512 838.4s-204.8-44.8-249.6-160c-51.2-153.6 57.6-339.2 192-428.8 44.8-32 89.6-51.2 128-57.6m64-64c-51.2 0-140.8 12.8-224 70.4-147.2 96-275.2 313.6-211.2 499.2C256 825.6 384 896 512 896c121.6 0 243.2-64 294.4-192 57.6-147.2-12.8-249.6-64-326.4-44.8-70.4-12.8-140.8-25.6-140.8-25.6 0-57.6 57.6-57.6 57.6s-38.4-44.8-6.4-108.8c12.8-25.6 32-51.2 25.6-57.6h-32z" p-id="5022" fill="#999999"></path><path d="M646.4 544C576 627.2 499.2 704 428.8 787.2c-6.4 6.4-12.8 0-12.8-6.4 19.2-57.6 44.8-115.2 64-172.8h-89.6c-6.4 0-6.4-6.4-6.4-12.8l192-230.4s6.4-6.4 6.4 0c6.4 0 6.4 6.4 6.4 6.4-25.6 57.6-38.4 108.8-57.6 160H640c6.4 0 12.8 6.4 6.4 12.8z" p-id="5023" fill="#999999"></path></svg>