<?xml version="1.0" standalone="no"?><!DOCTYPE svg PUBLIC "-//W3C//DTD SVG 1.1//EN" "http://www.w3.org/Graphics/SVG/1.1/DTD/svg11.dtd"><svg t="1494399641611" class="icon" style="" viewBox="0 0 1024 1024" version="1.1" xmlns="http://www.w3.org/2000/svg" p-id="4249" xmlns:xlink="http://www.w3.org/1999/xlink" width="32" height="32"><defs><style type="text/css"></style></defs><path d="M521.618867 856.488458c-3.069851 0-5.935045-0.511642-8.902568-1.534925H296.701109c-38.987109 0-70.504247-31.824123-70.504247-70.811233V560.145498c-28.24263-10.335165-47.582692-37.759169-47.582692-68.150694v-82.988309c0-39.908064 32.335765-72.448486 72.141501-72.448486h96.188668c-10.949136-17.293495-16.679524-37.145198-16.679524-57.917857 0-60.066753 48.708304-108.877386 108.468072-108.877386 31.926451 0 62.317977 14.325972 82.88598 38.680124 20.568002-24.354152 51.061857-38.680124 82.88598-38.680124 59.862097 0 108.468072 48.810633 108.468072 108.877386 0 20.772659-5.730389 40.624363-16.679524 57.917857h96.188668c19.340062 0 37.452183 7.572299 51.061856 21.284301 13.712002 13.712002 21.181973 31.926451 21.181973 51.164185V491.994804c0 30.391526-19.340062 57.815529-47.582692 68.150694v223.894474c0 39.089437-31.619466 70.811232-70.504247 70.811232H530.419107c-2.762866 1.125612-5.730389 1.637254-8.80024 1.637254z m224.917757-53.006096c10.744479 0 19.44239-8.697911 19.442391-19.44239V564.44329H547.200959v239.039072h199.335665z m-469.277905-19.44239c0 10.744479 8.697911 19.44239 19.44239 19.44239h199.335665V564.44329H277.258719v219.596682zM250.755671 387.926851c-11.563106 0-21.079644 9.516538-21.079644 21.079644V491.994804c0 11.665434 9.41421 21.079644 21.079644 21.079644h245.281103V387.926851H250.755671z m541.726392 125.147597c11.563106 0 21.079644-9.41421 21.079644-21.079644v-82.988309c0-11.563106-9.41421-21.079644-21.079644-21.079644H547.200959v125.249925h245.281104v-0.102328zM604.607175 336.148696c31.517138 0 57.201559-25.786749 57.201559-57.508544 0-31.721795-25.786749-57.508544-57.406216-57.508544-31.517138 0-57.201559 25.786749-57.303887 57.508544v57.610872h57.508544v-0.102328zM438.732887 221.02928c-31.619466 0-57.303887 25.786749-57.303887 57.508544 0 31.721795 25.582093 57.508544 57.201559 57.508544h57.406215v-57.610873c-0.102328-31.619466-25.786749-57.406216-57.303887-57.406215z" p-id="4250" fill="#1ABC9C"></path></svg>