<?xml version="1.0" standalone="no"?><!DOCTYPE svg PUBLIC "-//W3C//DTD SVG 1.1//EN" "http://www.w3.org/Graphics/SVG/1.1/DTD/svg11.dtd"><svg t="1494399819449" class="icon" style="" viewBox="0 0 1024 1024" version="1.1" xmlns="http://www.w3.org/2000/svg" p-id="7412" xmlns:xlink="http://www.w3.org/1999/xlink" width="32" height="32"><defs><style type="text/css"></style></defs><path d="M823.371 446.499l-68.717 0 0-159.816c0-133.843-108.783-242.683-242.621-242.683-133.843 0-242.746 108.84-242.746 242.683l0 159.816-68.659 0c-33.106 0-59.937 26.828-59.937 59.937l0 437.563c0 33.168 26.832 60 59.937 60l622.805 0c33.111 0 59.88-26.832 59.88-60l0-437.563c-0.005-33.111-26.827-59.937-59.943-59.937zM545.691 736.621l0 95.549c0 4.268-3.532 7.868-7.867 7.868l-51.523 0c-4.388 0-7.925-3.6-7.925-7.868l0-95.549c-24.206-12.379-40.972-37.195-40.972-66.283 0-41.155 33.413-74.631 74.573-74.631 41.217 0 74.635 33.475 74.635 74.631 0.057 29.088-16.709 53.904-40.92 66.283zM661.544 446.499l-299.026 0 0-155.856c0-82.44 67.132-149.573 149.572-149.573s149.453 67.133 149.453 149.573l0 155.856z" p-id="7413" fill="#ffffff"></path></svg>