<?xml version="1.0" standalone="no"?><!DOCTYPE svg PUBLIC "-//W3C//DTD SVG 1.1//EN" "http://www.w3.org/Graphics/SVG/1.1/DTD/svg11.dtd"><svg t="1494226600429" class="icon" style="" viewBox="0 0 1024 1024" version="1.1" xmlns="http://www.w3.org/2000/svg" p-id="2391" xmlns:xlink="http://www.w3.org/1999/xlink" width="32" height="32"><defs><style type="text/css"></style></defs><path d="M512 978.768843c-260.349563 0-472.170876-211.799824-472.170876-472.170876S251.650437 34.428114 512 34.428114c61.289901 0 120.860648 11.56643 177.100534 34.363645 21.959128 8.9263 32.541137 33.945113 23.635303 55.904241-8.905834 21.959128-33.923624 32.603559-55.904241 23.635303-45.930075-18.648732-94.647637-28.077475-144.831596-28.077475-213.035978 0-386.344139 173.328627-386.344139 386.344139s173.308161 386.344139 386.344139 386.344138S898.344139 719.613478 898.344139 506.597967c0-21.875217-1.822508-43.751457-5.426593-64.998364-3.960195-23.342638 11.754718-45.511543 35.118845-49.492204 23.51046-3.604084 45.553499 11.776208 49.492205 35.160801 4.400217 25.940812 6.642281 52.635801 6.64228 79.33079 0 260.370029-211.821313 472.169853-472.170876 472.169853z" p-id="2392" fill="#ffffff"></path><path d="M530.229177 666.097634L318.17762 454.046077c-16.762779-16.762779-16.762779-43.919279 0-60.682058s43.919279-16.762779 60.682057 0l151.3695 151.3695 380.687302-380.686279c16.762779-16.762779 43.919279-16.762779 60.682057 0s16.762779 43.919279 0 60.682058L530.229177 666.097634z" p-id="2393" fill="#ffffff"></path></svg>