<?xml version="1.0" standalone="no"?><!DOCTYPE svg PUBLIC "-//W3C//DTD SVG 1.1//EN" "http://www.w3.org/Graphics/SVG/1.1/DTD/svg11.dtd"><svg t="1513928394755" class="icon" style="" viewBox="0 0 1024 1024" version="1.1" xmlns="http://www.w3.org/2000/svg" p-id="1864" xmlns:xlink="http://www.w3.org/1999/xlink" width="24" height="24"><defs><style type="text/css">@font-face {
  font-family: "weel-translate";
  font-style: normal;
  font-weight: normal;
  src: url("moz-extension://3f6133e6-5f59-43ec-8a7b-37267ca04603/fonts/weel-translate.ttf") format("truetype"), url("moz-extension://3f6133e6-5f59-43ec-8a7b-37267ca04603/fonts/weel-translate.woff") format("woff");
}
@font-face {
  font-family: "weel-translate";
  font-style: normal;
  font-weight: normal;
  src: url("moz-extension://3f6133e6-5f59-43ec-8a7b-37267ca04603/fonts/weel-translate.ttf") format("truetype"), url("moz-extension://3f6133e6-5f59-43ec-8a7b-37267ca04603/fonts/weel-translate.woff") format("woff");
}
</style></defs><path d="M113.50399999999996 828.5333333333333c1.4666666666666666 5.866666666666666 5.84 11.68 10.224 16.08 115.30666666666666 141.57333333333332 312.37333333333333 202.90666666666667 494.8266666666666 137.2 230.64-81.76 351.7866666666667-337.2 268.5866666666667-569.2639999999999-83.2-232.10666666666665-337.2-353.25333333333333-570.7466666666667-270.05333333333334-5.84 1.4400000000000002-13.130666666666665 4.373333333333333-18.970666666666666 7.28-8.757333333333333-23.33333333333333-16.053333333333335-45.22666666666667-23.344-64.21333333333334-8.757333333333333-24.826666666666664-14.613333333333332-43.78666666666666-17.530666666666665-49.62666666666666l0 0c-1.4666666666666666-7.306666666666666-5.84-14.613333333333332-13.130666666666665-17.546666666666667-11.68-5.84-24.81066666666667-1.4400000000000002-30.640000000000004 10.24l0 0 0 1.4666666666666666-10.224 21.866666666666667L132.48000000000002 200.86400000000003l-8.746666666666666 21.89333333333333-8.757333333333333 17.52c-2.933333333333333 5.866666666666666-2.933333333333333 11.68-1.4666666666666666 17.546666666666667 1.4666666666666666 5.8133333333333335 5.84 10.213333333333333 11.68 13.146666666666667l17.52 8.746666666666666 20.426666666666666 10.186666666666667 148.89066666666668 70.08 21.877333333333336 10.213333333333333 1.4666666666666666 0 0 0c11.690666666666667 4.4 24.826666666666664 0 30.650666666666666-11.68 2.933333333333333-7.28 2.933333333333333-16.053333333333335-1.4400000000000002-21.866666666666667l0 0c-1.4666666666666666-5.866666666666666-8.757333333333333-24.826666666666664-17.52-49.68-5.84-17.493333333333332-13.157333333333334-37.919999999999995-20.437333333333335-58.34666666666667 5.84-2.933333333333333 13.146666666666667-4.4 18.986666666666668-7.333333333333333 188.29333333333335-67.11999999999999 397.024 30.666666666666664 464.1706666666667 218.98666666666668 67.14666666666668 188.2506666666667-30.666666666666664 396.99733333333336-218.96 464.1706666666667-150.34666666666666 54.026666666666664-313.82399999999996 2.933333333333333-407.25333333333333-116.77333333333333l0 0c-11.690666666666667-13.146666666666667-29.2-17.52-45.25333333333333-11.68C116.42666666666662 783.28 104.73066666666665 808.1066666666668 113.50399999999996 828.5333333333333z" fill="#ffffff" p-id="1865"></path></svg>