<?xml version="1.0" standalone="no"?><!DOCTYPE svg PUBLIC "-//W3C//DTD SVG 1.1//EN" "http://www.w3.org/Graphics/SVG/1.1/DTD/svg11.dtd"><svg t="1513928729536" class="icon" style="" viewBox="0 0 1024 1024" version="1.1" xmlns="http://www.w3.org/2000/svg" p-id="8437" xmlns:xlink="http://www.w3.org/1999/xlink" width="24" height="24"><defs><style type="text/css">@font-face {
  font-family: "weel-translate";
  font-style: normal;
  font-weight: normal;
  src: url("moz-extension://3f6133e6-5f59-43ec-8a7b-37267ca04603/fonts/weel-translate.ttf") format("truetype"), url("moz-extension://3f6133e6-5f59-43ec-8a7b-37267ca04603/fonts/weel-translate.woff") format("woff");
}
@font-face {
  font-family: "weel-translate";
  font-style: normal;
  font-weight: normal;
  src: url("moz-extension://3f6133e6-5f59-43ec-8a7b-37267ca04603/fonts/weel-translate.ttf") format("truetype"), url("moz-extension://3f6133e6-5f59-43ec-8a7b-37267ca04603/fonts/weel-translate.woff") format("woff");
}
</style></defs><path d="M945.159 867.61l-206.543-206.538c49.578-63.772 79.108-143.903 79.108-230.953 0-207.97-168.58-376.547-376.639-376.547-207.97 0-376.547 168.577-376.547 376.547 0 208.038 168.577 376.614 376.547 376.614 87.059 0 167.197-29.532 230.973-79.108l206.543 206.544c9.171 9.17 21.227 13.802 33.278 13.802s24.106-4.629 33.28-13.802c18.431-18.43 18.431-48.215 0-66.559v0zM158.701 430.119c0-155.737 126.65-282.39 282.39-282.39 155.826 0 282.477 126.65 282.477 282.39 0 155.805-126.65 282.458-282.477 282.458-155.739 0-282.39-126.65-282.39-282.458v0z" p-id="8438" fill="#ffffff"></path><path d="M579.708 389.853h-98.352v-98.352c0-22.272-17.991-40.268-40.268-40.352-22.185 0.086-40.267 18.078-40.267 40.352v98.352h-98.352c-22.272 0-40.268 17.991-40.268 40.179 0 22.272 17.991 40.352 40.268 40.352h98.352v98.352c0 22.252 18.080 40.246 40.267 40.333 22.274-0.086 40.268-18.080 40.268-40.333v-98.352h98.352c22.272 0 40.355-18.079 40.267-40.352 0-22.187-17.991-40.179-40.267-40.179v0z" p-id="8439" fill="#ffffff"></path></svg>