<?xml version="1.0" standalone="no"?><!DOCTYPE svg PUBLIC "-//W3C//DTD SVG 1.1//EN" "http://www.w3.org/Graphics/SVG/1.1/DTD/svg11.dtd"><svg t="1514887583358" class="icon" style="" viewBox="0 0 1024 1024" version="1.1" xmlns="http://www.w3.org/2000/svg" p-id="1011" xmlns:xlink="http://www.w3.org/1999/xlink" width="200" height="200"><defs><style type="text/css">@font-face {
  font-family: "weel-translate";
  font-style: normal;
  font-weight: normal;
  src: url("moz-extension://3f6133e6-5f59-43ec-8a7b-37267ca04603/fonts/weel-translate.ttf") format("truetype"), url("moz-extension://3f6133e6-5f59-43ec-8a7b-37267ca04603/fonts/weel-translate.woff") format("woff");
}
@font-face {
  font-family: "weel-translate";
  font-style: normal;
  font-weight: normal;
  src: url("moz-extension://3f6133e6-5f59-43ec-8a7b-37267ca04603/fonts/weel-translate.ttf") format("truetype"), url("moz-extension://3f6133e6-5f59-43ec-8a7b-37267ca04603/fonts/weel-translate.woff") format("woff");
}
</style></defs><path d="M697.6 146.2c-22.3 0-40-17.2-40-39.4 0-21.9 17.8-39.7 40-39.7h217.5c22 0 40 17.8 40 39.7l-0.6 3.7V324c0 22.5-18 39.7-39.5 39.7-22 0-39.4-17.2-39.4-39.7V202.3L766.9 311c59.2 72.4 88.5 161.2 88.5 249.7h0.5c0 218.1-176.9 395.3-395 395.3-217 0-395.3-178.4-395.3-395.3h0.3c0-217.3 177.2-394.8 395-394.8 88.5 0 177 29.6 249.6 89l108.8-108.8H697.6v0.1z m-236.7 99.5c-173.6 0-315.6 142-315.6 315 0 173.3 142.6 315.8 315.6 315.8 174.1 0 315.3-141.4 315.3-315.8h0.3c0-173.6-142-315-315.6-315z" p-id="1012" fill="#dddddd"></path></svg>