<?xml version="1.0" standalone="no"?><!DOCTYPE svg PUBLIC "-//W3C//DTD SVG 1.1//EN" "http://www.w3.org/Graphics/SVG/1.1/DTD/svg11.dtd"><svg t="1514194391408" class="icon" style="" viewBox="0 0 1024 1024" version="1.1" xmlns="http://www.w3.org/2000/svg" p-id="4581" xmlns:xlink="http://www.w3.org/1999/xlink" width="24" height="24"><defs><style type="text/css">@font-face {
  font-family: "weel-translate";
  font-style: normal;
  font-weight: normal;
  src: url("moz-extension://3f6133e6-5f59-43ec-8a7b-37267ca04603/fonts/weel-translate.ttf") format("truetype"), url("moz-extension://3f6133e6-5f59-43ec-8a7b-37267ca04603/fonts/weel-translate.woff") format("woff");
}
@font-face {
  font-family: "weel-translate";
  font-style: normal;
  font-weight: normal;
  src: url("moz-extension://3f6133e6-5f59-43ec-8a7b-37267ca04603/fonts/weel-translate.ttf") format("truetype"), url("moz-extension://3f6133e6-5f59-43ec-8a7b-37267ca04603/fonts/weel-translate.woff") format("woff");
}
</style></defs><path d="M0 976.384V352.256c39.424-89.6 80.384-179.2 117.76-270.336 12.8-31.232 30.208-40.96 62.464-40.448 221.184 1.536 441.856 1.536 663.04 0 32.768 0 49.664 9.216 62.464 40.96 37.376 91.136 78.336 180.224 117.76 270.336v615.936c-18.432 4.608-37.376 13.312-55.808 13.312-303.104 1.024-606.208 0.512-909.312 0.512-18.944-0.512-38.912-4.096-58.368-6.144zM44.544 385.536v548.864h934.4V385.536H44.544z m924.672-45.568c-35.84-82.944-69.12-162.304-104.448-240.64-3.072-7.168-19.456-12.288-29.184-12.8-215.552-0.512-431.616-0.512-647.168 0-10.24 0-26.624 5.12-29.696 12.288-35.328 78.336-68.608 157.696-104.448 240.64 307.2 0.512 608.256 0.512 914.944 0.512z" p-id="4582" fill="#dddddd"></path><path d="M510.976 470.528c55.808 0 111.616-0.512 167.424 0 52.224 1.024 88.064 34.816 89.088 82.432 1.024 48.64-36.864 86.528-89.6 86.528-110.592 1.024-220.672 1.024-331.264 0-53.248 0.512-90.624-35.84-90.624-84.48 0-49.664 35.84-82.944 91.136-83.968 54.784-1.024 109.568-0.512 163.84-0.512z m4.608 41.984c-54.784 0-109.056 0.512-163.84 0-29.696-0.512-51.712 10.752-52.736 41.472-1.024 31.232 22.016 44.032 50.688 44.544 108.032 0.512 216.064 0.512 323.584 0 28.672 0 51.2-12.8 50.176-44.544-1.024-31.232-22.528-41.984-52.224-41.472-51.712 0.512-103.424 0-155.648 0z" p-id="4583" fill="#dddddd"></path></svg>