<?xml version="1.0" standalone="no"?><!DOCTYPE svg PUBLIC "-//W3C//DTD SVG 1.1//EN" "http://www.w3.org/Graphics/SVG/1.1/DTD/svg11.dtd"><svg t="1494312003004" class="icon" style="" viewBox="0 0 1025 1024" version="1.1" xmlns="http://www.w3.org/2000/svg" p-id="4809" xmlns:xlink="http://www.w3.org/1999/xlink" width="32.03125" height="32"><defs><style type="text/css"></style></defs><path d="M939.479365 597.333333l0 341.333333c0 70.704762-14.628571 85.333333-85.449433 85.333333L170.898866 1024c-70.704762 0-85.449433-14.628571-85.449433-85.333333L85.449433 597.333333l-85.449433 0L0 341.333333c0-47.136508 38.196825-85.333333 85.449433-85.333333l128.05805 0c-20.31746-26.819048-42.724717-49.110204-42.724717-85.333333 5.22449-122.369161 82.314739-170.666667 170.782766-170.666667C430.14966 0 519.778685 120.627664 512.464399 256 508.865306 106.115193 594.895238 0 683.247166 0c88.468027 0 178.677551 58.746485 170.782766 170.666667 0 36.223129-22.407256 58.514286-42.724717 85.333333l128.05805 0c47.136508 0 85.449433 38.196825 85.449433 85.333333L1024.812698 597.333333 939.479365 597.333333zM854.029932 895.94195 854.029932 597.333333 555.189116 597.333333l0 341.333333 256.2322 0C834.989569 938.666667 854.029932 919.510204 854.029932 895.94195zM170.898866 895.94195c0 23.568254 19.156463 42.724717 42.724717 42.724717l256.2322 0L469.855782 597.333333 170.898866 597.333333 170.898866 895.94195zM170.898866 341.333333 128.17415 341.333333c-23.568254 0-42.724717 19.156463-42.724717 42.608617l0 128.05805 384.290249 0 0-170.666667L170.898866 341.333333zM341.681633 85.333333c-53.057596 0-85.449433 21.594558-85.449433 74.652154 0 53.057596 43.073016 96.014512 96.014512 96.014512 53.057596 0 48.065306 0 96.130612 0C448.493424 202.942404 394.739229 85.333333 341.681633 85.333333zM683.247166 85.333333c-53.057596 0-106.695692 117.60907-106.695692 170.666667 48.065306 0 42.956916 0 96.014512 0 53.057596 0 96.014512-42.956916 96.014512-96.014512C768.696599 106.927891 736.304762 85.333333 683.247166 85.333333zM939.479365 383.94195c0-23.568254-19.156463-42.608617-42.724717-42.608617l-42.724717 0L555.189116 341.333333l0 170.666667 384.290249 0L939.479365 383.94195z" p-id="4810" fill="#ffffff"></path></svg>