<?xml version="1.0" standalone="no"?><!DOCTYPE svg PUBLIC "-//W3C//DTD SVG 1.1//EN" "http://www.w3.org/Graphics/SVG/1.1/DTD/svg11.dtd"><svg t="1494312358745" class="icon" style="" viewBox="0 0 1024 1024" version="1.1" xmlns="http://www.w3.org/2000/svg" p-id="9621" xmlns:xlink="http://www.w3.org/1999/xlink" width="32" height="32"><defs><style type="text/css"></style></defs><path d="M116.224 512.512c0-194.048 134.656-363.52 324.096-405.504 104.448-23.04 203.776-8.192 296.96 43.52 11.264 6.144 16.896 16.896 14.336 28.672-2.048 10.752-10.752 18.944-22.016 20.48-6.656 1.024-12.8-1.024-18.432-4.608a368.128 368.128 0 0 0-107.52-39.936c-164.864-33.792-336.896 55.296-403.968 209.92-24.576 56.32-34.816 114.688-30.208 175.616 11.264 148.992 115.2 278.528 258.048 321.024 195.584 57.856 398.848-52.736 455.168-248.832 27.648-96.768 15.872-189.952-32.768-278.528-5.632-10.24-6.656-20.48 0-30.208 11.264-15.872 34.304-14.336 44.032 2.56 14.848 25.6 26.112 52.224 35.328 80.384 17.408 54.272 23.04 110.08 17.408 166.912-16.896 169.472-134.656 310.784-297.472 358.4-230.4 67.584-470.528-73.728-523.264-308.224-6.656-29.696-9.728-60.416-9.728-91.648z" fill="#ffffff" p-id="9622"></path><path d="M752.128 702.464c-41.984-82.432-126.976-135.168-221.184-135.168-94.208 0-178.688 52.736-221.184 135.168-7.168 14.336-1.536 31.232 12.288 38.912 14.336 7.168 31.232 1.536 38.912-12.288 32.256-62.976 97.28-103.936 169.984-103.936 72.192 0 137.216 40.448 169.984 103.936 7.168 14.336 24.576 19.968 38.912 12.288 13.824-7.68 19.456-25.088 12.288-38.912z" fill="#ffffff" p-id="9623"></path><path d="M621.568 417.792a76.288 50.176 90 1 0 100.352 0 76.288 50.176 90 1 0-100.352 0Z" fill="#ffffff" p-id="9624"></path><path d="M344.576 417.792a76.288 50.176 90 1 0 100.352 0 76.288 50.176 90 1 0-100.352 0Z" fill="#ffffff" p-id="9625"></path></svg>