<?xml version="1.0" standalone="no"?><!DOCTYPE svg PUBLIC "-//W3C//DTD SVG 1.1//EN" "http://www.w3.org/Graphics/SVG/1.1/DTD/svg11.dtd"><svg t="1494317368161" class="icon" style="" viewBox="0 0 1024 1024" version="1.1" xmlns="http://www.w3.org/2000/svg" p-id="18542" xmlns:xlink="http://www.w3.org/1999/xlink" width="32" height="32"><defs><style type="text/css"></style></defs><path d="M622.463346 155.369603c125.658931 69.642127 210.79596 203.145723 210.79596 356.629373 0 153.485697-85.137029 286.953478-210.79596 356.613 187.843202-11.492752 336.698438-166.532851 336.698438-356.613C959.161784 321.920874 810.271756 166.915567 622.463346 155.369603zM782.849196 511.998977c0-197.553355-160.734798-357.729427-359.022886-357.729427-198.25432 0-358.989117 160.176073-358.989117 357.729427 0 197.555401 160.734798 357.730451 358.989117 357.730451C622.113375 869.729427 782.849196 709.554378 782.849196 511.998977zM571.842435 574.705134c8.978489 0.682545 16.000416 4.105504 21.170159 10.270924 5.136997 6.16542 8.070816 13.537318 8.733918 22.113647-0.663102 8.908904-3.597945 16.350386-8.733918 22.340821-5.169743 5.990434-12.190647 9.31004-21.170159 10.008958l-99.003851-0.505513 0 54.479799c-1.364067 29.118178-17.362436 43.668569-47.965431 43.668569-15.126512 0-26.900673-3.580548-35.319413-10.777461-8.455579-7.197936-12.997012-18.148335-13.660114-32.891108l0-53.450353-99.5636 0c-9.257851-0.680499-16.419971-4.541433-21.379936-11.562337-4.995781-7.006578-8.000208-14.813381-9.048073-23.372314 1.047866-8.558933 4.052293-15.58086 9.048073-21.065781 4.959965-5.483898 12.122085-8.576329 21.379936-9.258874l99.5636 0 0-32.383548-99.5636-0.506537c-9.257851-0.699941-16.419971-3.946892-21.379936-9.764388-4.995781-5.834892-8.000208-13.204743-9.048073-22.113647 1.047866-8.559956 4.052293-15.58086 9.048073-21.065781 4.959965-5.483898 12.122085-8.556886 21.379936-9.255805l74.271564 0-69.101821-121.275087c-3.457752-4.105504-6.706749-9.345856-9.815553-15.669888-3.075035-6.340405-4.472871-13.274328-4.122901-20.821211 1.713015-9.607822 5.17179-17.397229 10.305717-23.388686 5.169743-5.990434 14.813381-9.850345 28.891004-11.562337 8.245801 0.680499 15.650445 3.527336 22.182208 8.489348 6.53381 4.959965 11.878538 10.357905 16.000416 16.174378l78.393441 142.882198 86.114287-143.895271c4.120854-5.816472 9.467629-10.969842 16.000416-15.424294 6.531763-4.470825 13.938454-7.196912 22.182208-8.227382 5.17179 0.331551 9.888208 1.029446 14.184047 2.042519 4.261047 1.047866 8.069793 2.76088 11.354606 5.17179 3.248997 2.391467 6.007831 5.816472 8.244778 10.270924 2.235924 4.436032 3.842515 10.268878 4.89038 17.483186 0 9.940396-3.422959 19.354813-10.305717 28.262694l-79.930447 129.502469L571.878251 479.629755c8.943696 0.682545 16.000416 3.77293 21.134343 9.257851 5.136997 5.483898 8.070816 12.505825 8.768711 21.065781-0.698918 8.925277-3.703345 16.45374-9.013281 22.61916-5.344728 6.147-12.471033 9.572006-21.414729 10.270924l-98.514711 0.50449 0 31.354102L571.842435 574.702064z" p-id="18543" fill="#ffffff"></path><path d="M622.463346 155.369603c125.658931 69.642127 210.79596 203.145723 210.79596 356.629373 0 153.485697-85.137029 286.953478-210.79596 356.613 187.843202-11.492752 336.698438-166.532851 336.698438-356.613C959.161784 321.920874 810.271756 166.915567 622.463346 155.369603zM782.849196 511.998977c0-197.553355-160.734798-357.729427-359.022886-357.729427-198.25432 0-358.989117 160.176073-358.989117 357.729427 0 197.555401 160.734798 357.730451 358.989117 357.730451C622.113375 869.729427 782.849196 709.554378 782.849196 511.998977zM571.842435 574.705134c8.978489 0.682545 16.000416 4.105504 21.170159 10.270924 5.136997 6.16542 8.070816 13.537318 8.733918 22.113647-0.663102 8.908904-3.597945 16.350386-8.733918 22.340821-5.169743 5.990434-12.190647 9.31004-21.170159 10.008958l-99.003851-0.505513 0 54.479799c-1.364067 29.118178-17.362436 43.668569-47.965431 43.668569-15.126512 0-26.900673-3.580548-35.319413-10.777461-8.455579-7.197936-12.997012-18.148335-13.660114-32.891108l0-53.450353-99.5636 0c-9.257851-0.680499-16.419971-4.541433-21.379936-11.562337-4.995781-7.006578-8.000208-14.813381-9.048073-23.372314 1.047866-8.558933 4.052293-15.58086 9.048073-21.065781 4.959965-5.483898 12.122085-8.576329 21.379936-9.258874l99.5636 0 0-32.383548-99.5636-0.506537c-9.257851-0.699941-16.419971-3.946892-21.379936-9.764388-4.995781-5.834892-8.000208-13.204743-9.048073-22.113647 1.047866-8.559956 4.052293-15.58086 9.048073-21.065781 4.959965-5.483898 12.122085-8.556886 21.379936-9.255805l74.271564 0-69.101821-121.275087c-3.457752-4.105504-6.706749-9.345856-9.815553-15.669888-3.075035-6.340405-4.472871-13.274328-4.122901-20.821211 1.713015-9.607822 5.17179-17.397229 10.305717-23.388686 5.169743-5.990434 14.813381-9.850345 28.891004-11.562337 8.245801 0.680499 15.650445 3.527336 22.182208 8.489348 6.53381 4.959965 11.878538 10.357905 16.000416 16.174378l78.393441 142.882198 86.114287-143.895271c4.120854-5.816472 9.467629-10.969842 16.000416-15.424294 6.531763-4.470825 13.938454-7.196912 22.182208-8.227382 5.17179 0.331551 9.888208 1.029446 14.184047 2.042519 4.261047 1.047866 8.069793 2.76088 11.354606 5.17179 3.248997 2.391467 6.007831 5.816472 8.244778 10.270924 2.235924 4.436032 3.842515 10.268878 4.89038 17.483186 0 9.940396-3.422959 19.354813-10.305717 28.262694l-79.930447 129.502469L571.878251 479.629755c8.943696 0.682545 16.000416 3.77293 21.134343 9.257851 5.136997 5.483898 8.070816 12.505825 8.768711 21.065781-0.698918 8.925277-3.703345 16.45374-9.013281 22.61916-5.344728 6.147-12.471033 9.572006-21.414729 10.270924l-98.514711 0.50449 0 31.354102L571.842435 574.702064z" p-id="18544" fill="#ffffff"></path></svg>