<?xml version="1.0" standalone="no"?><!DOCTYPE svg PUBLIC "-//W3C//DTD SVG 1.1//EN" "http://www.w3.org/Graphics/SVG/1.1/DTD/svg11.dtd"><svg t="1494314902909" class="icon" style="" viewBox="0 0 1024 1024" version="1.1" xmlns="http://www.w3.org/2000/svg" p-id="15816" xmlns:xlink="http://www.w3.org/1999/xlink" width="32" height="32"><defs><style type="text/css"></style></defs><path d="M985.466368 371.0464 911.610368 294.656C905.261568 287.9232 896.275968 284.16 887.111168 283.9808 878.330368 284.7232 868.986368 287.36 862.432768 293.9136 831.405568 324.2496 777.927168 323.6864 747.642368 292.608 732.691968 277.0688 724.269568 256.4608 724.627968 234.9312 725.011968 213.4016 733.613568 192.9984 749.127168 177.8432 762.976768 164.352 763.155968 142.4384 749.869568 128.5888L675.834368 52.1984C641.991168 17.3824 582.163968 16.64 547.194368 50.7136L65.555968 523.264C48.173568 540.288 38.266368 563.1232 38.061568 587.4688 37.703168 611.8144 47.047168 634.8288 63.866368 652.0576L137.722368 728.2688C144.096768 735.0016 153.056768 738.7392 162.221568 738.944 170.259968 738.944 180.346368 735.5648 186.899968 729.0112 217.747968 698.88 271.226368 699.4432 301.511168 730.496 316.666368 746.0608 324.883968 766.464 324.704768 788.1728 324.320768 809.8816 315.719168 830.1056 300.205568 845.2864 286.381568 858.752 286.176768 880.6656 299.463168 894.5152L373.498368 970.9056C390.701568 988.6976 413.895168 998.4256 438.573568 998.4256 462.330368 998.4256 484.935168 989.2352 502.138368 972.3904L983.981568 499.6608C1001.363968 482.6368 1011.091968 459.776 1011.271168 435.4304 1011.655168 411.1104 1002.285568 388.0704 985.466368 371.0464ZM355.936768 591.5904C346.951168 591.5904 338.170368 588.2112 331.232768 581.2992 317.587968 567.6288 317.587968 545.7152 331.232768 532.0448L525.511168 337.536C539.155968 323.8656 561.043968 323.8656 574.688768 337.536 588.333568 351.2064 588.333568 373.0944 574.688768 386.7648L380.615168 581.4784C373.677568 588.2112 364.896768 591.5904 355.936768 591.5904ZM678.624768 491.0592 484.371968 685.568C477.639168 692.3008 468.679168 695.68 459.872768 695.68 450.912768 695.68 442.131968 692.3008 435.194368 685.3888 421.549568 671.7184 421.549568 649.8048 435.194368 636.16L629.472768 441.8048C643.117568 428.1344 665.005568 428.1344 678.624768 441.8048 692.295168 455.4752 692.295168 477.3888 678.624768 491.0592Z" p-id="15817" fill="#ffffff"></path></svg>