<?xml version="1.0" standalone="no"?><!DOCTYPE svg PUBLIC "-//W3C//DTD SVG 1.1//EN" "http://www.w3.org/Graphics/SVG/1.1/DTD/svg11.dtd"><svg t="1494930759297" class="icon" style="" viewBox="0 0 1024 1024" version="1.1" xmlns="http://www.w3.org/2000/svg" p-id="8634" xmlns:xlink="http://www.w3.org/1999/xlink" width="24" height="24"><defs><style type="text/css"></style></defs><path d="M508.783237 927.207513c-4.997827 0-9.606799-1.098008-13.700023-3.2623-59.82862-29.747511-168.302147-110.898763-265.23892-218.887242-50.848085-56.644091-91.276866-112.650663-120.163777-166.465313-33.726126-62.829977-50.827619-121.363092-50.827619-173.97331 0-108.376313 50.559513-170.902368 92.974531-204.272383 47.115064-37.068244 111.557772-59.198264 172.383092-59.198264 37.786605 0 76.862575 11.600199 116.14423 34.479279 28.826536 16.789385 52.340065 36.520775 68.427462 51.785433 16.087397-15.264659 39.599903-34.996049 68.427462-51.785433 39.280632-22.878057 78.353532-34.479279 116.137067-34.479279 60.826344 0 125.271098 22.13002 172.387185 59.198264 42.416042 33.368992 92.977601 95.89607 92.977601 204.272383 0 52.606125-17.099447 111.13924-50.823526 173.97331-28.878724 53.804417-69.296249 109.813035-120.132054 166.464289-96.90812 107.996666-205.343785 189.197036-265.083377 218.939431C518.290775 926.137135 513.636778 927.207513 508.783237 927.207513zM324.212568 162.071236c-82.016968 0-204.038046 53.942563-204.038046 202.549136 0 186.876178 268.955568 430.488545 388.609739 497.762741 119.631658-67.261916 388.538107-310.859957 388.538107-497.762741 0-148.606573-121.982192-202.549136-203.973578-202.549136-43.249013 0-83.864036 23.23826-110.320595 42.733267-28.973892 21.350261-47.965431 43.057655-50.16554 45.62513l-0.080841 0.132006-0.485047 0.549515c-5.936199 6.742565-14.725376 10.767228-23.51353 10.767228-8.78099 0-17.570167-4.022617-23.512507-10.762111l-0.357134-0.405229-0.075725-0.11154C481.054709 246.204401 406.913105 162.071236 324.212568 162.071236z" p-id="8635" fill="#999999"></path></svg>