<?xml version="1.0" standalone="no"?><!DOCTYPE svg PUBLIC "-//W3C//DTD SVG 1.1//EN" "http://www.w3.org/Graphics/SVG/1.1/DTD/svg11.dtd"><svg t="1495101111794" class="icon" style="" viewBox="0 0 1024 1024" version="1.1" xmlns="http://www.w3.org/2000/svg" p-id="2382" xmlns:xlink="http://www.w3.org/1999/xlink" width="24" height="24"><defs><style type="text/css"></style></defs><path d="M415.991878 162.110121c-21.679765-20.135596-49.523927-32.231075-74.547857-32.231075-7.473205 0-21.284769 1.223874-30.139437 9.464559-2.000564 1.864464-8.139378 7.528464-8.139378 21.615297 0 15.770172 8.596795 40.635489 32.623002 63.055105 29.398564 27.351951 77.900208 48.071855 112.799042 48.071855 12.260232 0 16.663518-2.740414 16.690124-2.777253C470.987423 257.924327 456.983477 200.314235 415.991878 162.110121L415.991878 162.110121zM560.114322 270.240841c0.804319 0 5.54632 1.845021 15.659655 1.845021 34.898835 0 83.399455-20.719904 112.824625-48.071855 24.036439-22.419616 32.588209-47.267537 32.588209-63.055105 0-14.013155-6.093788-19.733437-8.139378-21.615297-8.844435-8.240685-22.638603-9.464559-30.130228-9.464559-25.021883 0-52.868091 12.095479-74.583672 32.231075-40.653909 37.930891-54.741765 94.975095-48.282656 108.165512C560.050878 270.275633 560.077483 270.240841 560.114322 270.240841L560.114322 270.240841zM479.429699 961.060529 184.721607 961.060529c-36.013215 0-65.475224-29.452799-65.475224-65.484434L119.246383 666.343227l360.183316 0L479.429699 961.060529 479.429699 961.060529 479.429699 961.060529zM905.113821 895.557676c0 36.050054-29.460985 65.502853-65.484434 65.502853L544.931528 961.060529 544.931528 666.343227l360.182292 0L905.113821 895.557676 905.113821 895.557676zM905.113821 600.840374 544.931528 600.840374 544.931528 335.084685c-12.023848-3.25309-22.62837-8.67866-31.143301-16.588817-0.547469-0.512676-1.078565-1.060145-1.608637-1.572822-0.530073 0.512676-1.069355 1.060145-1.607614 1.572822-8.523117 7.910157-19.122523 13.33675-31.143301 16.588817l0 265.756713-360.183316 0L119.24536 371.626949c0-36.012192 29.462009-65.502853 65.475224-65.502853l151.552671 0c-16.983813-9.574053-32.733519-20.810978-46.027289-33.1981-60.824297-56.713676-71.797209-138.387837-24.556279-182.513824 19.84293-18.416442 46.701648-27.351951 75.752288-27.351951 40.308031 0 84.742033 17.21201 120.114658 50.15633 20.48352 19.111267 38.08848 43.650149 50.621934 69.467141 12.534478-25.816992 30.139437-50.355875 50.620911-69.467141 35.365462-32.943296 79.808674-50.15633 120.115682-50.15633 28.996404 0 55.902194 8.93551 75.700099 27.351951 47.329958 44.125987 36.322254 125.800147-24.466228 182.513824-13.300934 12.387122-29.069059 23.624047-46.071292 33.1981l151.551648 0c36.023448 0 65.484434 29.490661 65.484434 65.502853L905.113821 600.840374 905.113821 600.840374 905.113821 600.840374zM905.113821 600.840374" p-id="2383" fill="#ffffff"></path></svg>