<?xml version="1.0" standalone="no"?><!DOCTYPE svg PUBLIC "-//W3C//DTD SVG 1.1//EN" "http://www.w3.org/Graphics/SVG/1.1/DTD/svg11.dtd"><svg t="1494236207025" class="icon" style="" viewBox="0 0 1024 1024" version="1.1" xmlns="http://www.w3.org/2000/svg" p-id="13797" xmlns:xlink="http://www.w3.org/1999/xlink" width="32" height="32"><defs><style type="text/css"></style></defs><path d="M515.069919 246.526743c90.082668 0 172.034145 33.989115 234.43331 89.484034l89.461521-177.821965-29.450752-29.443589-29.443589 0L250.062266 128.745223 220.618677 128.745223l-29.443589 29.443589 89.454358 177.814802C343.042937 280.515858 424.986227 246.526743 515.069919 246.526743zM722.111368 390.473179c-53.203736-52.612265-126.303614-85.148285-207.04145-85.148285s-153.829528 32.536021-207.04145 85.148285l0.045025 0.082888c-53.967122 53.375651-87.454818 127.403668-87.454818 209.302957 0 162.620751 131.829468 294.451242 294.451242 294.451242 162.613588 0 294.443056-131.829468 294.443056-294.451242 0-81.898265-33.479509-155.926282-87.447654-209.302957L722.111368 390.473179z" p-id="13798" fill="#999999"></path></svg>